<?xml version="1.0" encoding="UTF-8"?>
<svg width="512px" height="512px" viewBox="0 0 512 512" version="1.1" xmlns="http://www.w3.org/2000/svg" xmlns:xlink="http://www.w3.org/1999/xlink">
    <!-- Generator: Sketch 54.1 (76490) - https://sketchapp.com -->
    <title>Artboard</title>
    <desc>Created with Sketch.</desc>
    <g id="Artboard" stroke="none" stroke-width="1" fill="none" fill-rule="evenodd">
        <g id="lever" transform="translate(256.000000, 256.000000) scale(1, -1) translate(-256.000000, -256.000000) " fill-rule="nonzero">
            <path d="M145.747,448.913 L365.107,448.913 C355.15,397.416 309.834,358.522 255.428,358.522 C201.022,358.522 155.705,397.415 145.747,448.913 Z" id="Path" fill="#7C7A75"></path>
            <path d="M411.615,88.527 L407.182,96.204 L391.634,123.134 L388.807,128.032 C388.778,128.005 388.745,127.98 388.715,127.952 L384.282,135.629 L368.734,162.559 L255.59,358.526 C267.144,358.543 278.281,360.322 288.757,363.595 L311.541,324.136 C311.58,324.149 311.619,324.159 311.658,324.17 L338.832,277.107 L352.024,254.257 L438.554,104.381 C428.422,101.058 419.264,95.6 411.615,88.527 Z" id="Path" fill="#CCC3A8"></path>
            <path d="M496.778,118.767 C497.051,118.413 497.329,118.062 497.595,117.702 C498.081,117.046 498.55,116.378 499.014,115.705 C499.174,115.474 499.343,115.25 499.499,115.016 C500.1,114.125 500.678,113.22 501.238,112.303 C501.45,111.958 501.648,111.604 501.854,111.256 C502.209,110.652 502.564,110.047 502.902,109.432 C503.122,109.032 503.333,108.627 503.546,108.223 C503.852,107.641 504.155,107.056 504.447,106.464 C504.654,106.046 504.855,105.626 505.053,105.202 C505.334,104.602 505.607,103.998 505.871,103.39 C506.053,102.974 506.236,102.557 506.411,102.136 C506.684,101.476 506.943,100.81 507.198,100.14 C507.341,99.764 507.491,99.391 507.628,99.012 C507.965,98.081 508.281,97.142 508.581,96.195 C508.62,96.073 508.664,95.952 508.703,95.829 C509.035,94.762 509.337,93.683 509.62,92.596 C509.714,92.237 509.793,91.873 509.882,91.512 C510.064,90.768 510.24,90.022 510.4,89.269 C510.49,88.841 510.57,88.413 510.653,87.983 C510.788,87.281 510.916,86.576 511.032,85.867 C511.104,85.421 511.172,84.972 511.237,84.523 C511.339,83.808 511.429,83.09 511.51,82.37 C511.56,81.93 511.612,81.493 511.653,81.051 C511.727,80.268 511.783,79.48 511.833,78.689 C511.856,78.309 511.89,77.933 511.906,77.553 C511.962,76.381 511.995,75.205 511.995,74.019 C511.995,33.456 479.113,0.572 438.548,0.572 C397.985,0.572 365.101,33.454 365.101,74.019 C365.101,75.204 365.135,76.381 365.191,77.553 C365.21,77.934 365.241,78.31 365.264,78.689 C365.314,79.48 365.369,80.268 365.444,81.051 C365.486,81.492 365.537,81.931 365.587,82.37 C365.668,83.091 365.758,83.809 365.86,84.523 C365.924,84.972 365.992,85.42 366.065,85.867 C366.181,86.577 366.308,87.281 366.443,87.983 C366.526,88.413 366.606,88.841 366.696,89.269 C366.855,90.022 367.031,90.768 367.214,91.512 C367.302,91.872 367.382,92.236 367.475,92.596 C367.759,93.683 368.062,94.762 368.393,95.829 C368.431,95.952 368.476,96.074 368.515,96.198 C368.815,97.144 369.131,98.083 369.467,99.012 C369.605,99.392 369.756,99.766 369.899,100.143 C370.153,100.813 370.412,101.479 370.686,102.139 C370.859,102.559 371.041,102.973 371.224,103.389 C371.489,103.999 371.762,104.604 372.044,105.205 C372.244,105.627 372.444,106.048 372.651,106.465 C372.942,107.057 373.244,107.641 373.551,108.224 C373.763,108.628 373.975,109.034 374.195,109.433 C374.535,110.047 374.887,110.652 375.243,111.257 C375.448,111.606 375.647,111.96 375.858,112.304 C376.42,113.221 376.997,114.128 377.597,115.017 C377.755,115.25 377.922,115.475 378.083,115.706 C378.547,116.378 379.016,117.046 379.501,117.703 C379.768,118.063 380.046,118.414 380.319,118.768 C380.604,119.139 380.881,119.517 381.174,119.882 L381.236,119.935 C387.02,127.144 394.133,133.233 402.207,137.839 L402.287,137.908 C402.564,138.066 402.845,138.212 403.123,138.366 C403.362,138.498 403.599,138.63 403.84,138.759 C404.736,139.241 405.641,139.707 406.56,140.152 C406.73,140.234 406.905,140.312 407.076,140.394 C407.887,140.78 408.707,141.149 409.534,141.506 C409.759,141.603 409.983,141.701 410.208,141.796 C411.158,142.194 412.119,142.573 413.089,142.932 C413.296,143.008 413.501,143.079 413.708,143.152 C414.563,143.459 415.424,143.751 416.291,144.026 C416.495,144.092 416.696,144.158 416.901,144.221 C417.902,144.529 418.911,144.815 419.931,145.081 C420.161,145.142 420.392,145.196 420.622,145.254 C421.535,145.483 422.453,145.696 423.378,145.889 C423.546,145.925 423.712,145.963 423.881,145.999 C424.925,146.21 425.98,146.395 427.041,146.563 C427.291,146.602 427.542,146.637 427.793,146.675 C428.785,146.82 429.781,146.95 430.784,147.056 C430.893,147.067 431.001,147.083 431.109,147.094 C432.195,147.203 433.289,147.282 434.388,147.344 C434.652,147.358 434.916,147.37 435.18,147.383 C436.297,147.433 437.417,147.467 438.544,147.467 C439.673,147.467 440.793,147.433 441.908,147.383 C442.172,147.37 442.438,147.357 442.7,147.344 C443.799,147.282 444.896,147.203 445.982,147.094 C446.091,147.083 446.196,147.067 446.305,147.056 C447.309,146.951 448.306,146.821 449.297,146.675 C449.548,146.638 449.799,146.603 450.049,146.563 C451.11,146.396 452.163,146.211 453.21,145.999 C453.378,145.965 453.544,145.926 453.712,145.889 C454.637,145.695 455.556,145.483 456.467,145.254 C456.698,145.196 456.929,145.141 457.159,145.081 C458.177,144.816 459.187,144.529 460.187,144.221 C460.391,144.158 460.592,144.091 460.797,144.026 C461.665,143.751 462.527,143.459 463.38,143.152 C463.587,143.079 463.794,143.008 463.999,142.932 C464.97,142.573 465.929,142.193 466.88,141.796 C467.107,141.702 467.331,141.603 467.555,141.505 C468.382,141.15 469.202,140.78 470.013,140.394 C470.185,140.313 470.358,140.234 470.531,140.152 C471.448,139.708 472.353,139.241 473.25,138.759 C473.49,138.63 473.729,138.498 473.966,138.366 C474.244,138.213 474.526,138.065 474.801,137.908 L474.881,137.839 C482.956,133.232 490.069,127.143 495.853,119.935 L495.915,119.882 C496.216,119.516 496.492,119.138 496.778,118.767 Z" id="Path" fill="#E35F46"></path>
            <path d="M408.896,479.631 L396.184,451.705 C395.101,449.328 392.731,447.803 390.119,447.803 L120.737,447.803 C118.126,447.803 115.755,449.329 114.672,451.705 L101.959,479.631 C101.021,481.693 101.195,484.093 102.42,485.998 C103.646,487.904 105.758,489.055 108.024,489.055 L402.832,489.055 C405.099,489.055 407.209,487.903 408.435,485.998 C409.662,484.092 409.836,481.693 408.896,479.631 Z" id="Path" fill="#FFB92E"></path>
            <path d="M496.936,480.17 L413.276,480.17 L97.579,480.17 L13.919,480.17 C6.231,480.17 0,486.402 0,494.089 L0,497.51 C0,505.197 6.231,511.429 13.919,511.429 L97.579,511.429 L348.588,511.429 L379.684,511.429 L413.276,511.429 L496.936,511.429 C504.623,511.429 510.855,505.198 510.855,497.51 L510.855,494.089 C510.855,486.402 504.624,480.17 496.936,480.17 Z" id="Path" fill="#CCC3A8"></path>
        </g>
    </g>
</svg>